<svg xmlns="http://www.w3.org/2000/svg" viewBox="0 0 1024 1024">
  
  <defs>
    <radialGradient id="bgG" cx="0.5" cy="0.32" r="0.85">
      <stop offset="0" stop-color="#2E1E66"/>
      <stop offset="0.55" stop-color="#1A1240"/>
      <stop offset="1" stop-color="#120C28"/>
    </radialGradient>
    <linearGradient id="goldG" x1="0" y1="0" x2="0" y2="1">
      <stop offset="0" stop-color="#FFE9B8"/>
      <stop offset="0.45" stop-color="#F2C14E"/>
      <stop offset="1" stop-color="#C98A2B"/>
    </linearGradient>
    <linearGradient id="goldBody" x1="0" y1="0" x2="0" y2="1">
      <stop offset="0" stop-color="#FFEDC2"/>
      <stop offset="0.5" stop-color="#F5C65A"/>
      <stop offset="1" stop-color="#D69A32"/>
    </linearGradient>
    <linearGradient id="coreG" x1="0" y1="0" x2="0" y2="1">
      <stop offset="0" stop-color="#FFF6DC"/>
      <stop offset="1" stop-color="#FFD98A"/>
    </linearGradient>
    <radialGradient id="glowG" cx="0.5" cy="0.5" r="0.5">
      <stop offset="0" stop-color="#F2C14E" stop-opacity="0.22"/>
      <stop offset="1" stop-color="#F2C14E" stop-opacity="0"/>
    </radialGradient>
    <radialGradient id="glowHotG" cx="0.5" cy="0.5" r="0.5">
      <stop offset="0" stop-color="#FFC876" stop-opacity="0.35"/>
      <stop offset="1" stop-color="#FFC876" stop-opacity="0"/>
    </radialGradient>
  </defs>
  <clipPath id="clip"><circle cx="512" cy="512" r="512"/></clipPath>
  <g clip-path="url(#clip)">
  <rect width="1024" height="1024" fill="url(#bgG)"/>
  <circle cx="512" cy="512" r="500" fill="none" stroke="#F2C14E" stroke-opacity="0.16" stroke-width="4"/>
  
  <!-- mandala sunburst: the temple-gate pull -->
  <g stroke="#F2C14E">
    <line x1="712.0" y1="512.0" x2="852.0" y2="512.0" stroke-opacity="0.1"/>
    <line x1="705.2" y1="460.2" x2="801.8" y2="434.4" stroke-opacity="0.06"/>
    <line x1="685.2" y1="412.0" x2="806.4" y2="342.0" stroke-opacity="0.1"/>
    <line x1="653.4" y1="370.6" x2="724.1" y2="299.9" stroke-opacity="0.06"/>
    <line x1="612.0" y1="338.8" x2="682.0" y2="217.6" stroke-opacity="0.1"/>
    <line x1="563.8" y1="318.8" x2="589.6" y2="222.2" stroke-opacity="0.06"/>
    <line x1="512.0" y1="312.0" x2="512.0" y2="172.0" stroke-opacity="0.1"/>
    <line x1="460.2" y1="318.8" x2="434.4" y2="222.2" stroke-opacity="0.06"/>
    <line x1="412.0" y1="338.8" x2="342.0" y2="217.6" stroke-opacity="0.1"/>
    <line x1="370.6" y1="370.6" x2="299.9" y2="299.9" stroke-opacity="0.06"/>
    <line x1="338.8" y1="412.0" x2="217.6" y2="342.0" stroke-opacity="0.1"/>
    <line x1="318.8" y1="460.2" x2="222.2" y2="434.4" stroke-opacity="0.06"/>
    <line x1="312.0" y1="512.0" x2="172.0" y2="512.0" stroke-opacity="0.1"/>
    <line x1="318.8" y1="563.8" x2="222.2" y2="589.6" stroke-opacity="0.06"/>
    <line x1="338.8" y1="612.0" x2="217.6" y2="682.0" stroke-opacity="0.1"/>
    <line x1="370.6" y1="653.4" x2="299.9" y2="724.1" stroke-opacity="0.06"/>
    <line x1="412.0" y1="685.2" x2="342.0" y2="806.4" stroke-opacity="0.1"/>
    <line x1="460.2" y1="705.2" x2="434.4" y2="801.8" stroke-opacity="0.06"/>
    <line x1="512.0" y1="712.0" x2="512.0" y2="852.0" stroke-opacity="0.1"/>
    <line x1="563.8" y1="705.2" x2="589.6" y2="801.8" stroke-opacity="0.06"/>
    <line x1="612.0" y1="685.2" x2="682.0" y2="806.4" stroke-opacity="0.1"/>
    <line x1="653.4" y1="653.4" x2="724.1" y2="724.1" stroke-opacity="0.06"/>
    <line x1="685.2" y1="612.0" x2="806.4" y2="682.0" stroke-opacity="0.1"/>
    <line x1="705.2" y1="563.8" x2="801.8" y2="589.6" stroke-opacity="0.06"/>
  </g>

  <!-- twin glow: warm halo + hot core -->
  <ellipse cx="512" cy="520" rx="230" ry="248" fill="url(#glowG)"/>
  <ellipse cx="512" cy="540" rx="120" ry="130" fill="url(#glowHotG)"/>

  <!-- nakshatra ring: 27 lunar mansions -->
  <circle cx="943.0" cy="512.0" r="3.4" fill="#F2C14E" opacity="0.55"/>
    <circle cx="931.4" cy="412.6" r="2.3" fill="#F2C14E" opacity="0.32"/>
    <circle cx="897.2" cy="318.6" r="2.3" fill="#F2C14E" opacity="0.32"/>
    <circle cx="842.2" cy="235.0" r="3.4" fill="#F2C14E" opacity="0.55"/>
    <circle cx="769.4" cy="166.3" r="2.3" fill="#F2C14E" opacity="0.32"/>
    <circle cx="682.7" cy="116.2" r="2.3" fill="#F2C14E" opacity="0.32"/>
    <circle cx="586.8" cy="87.5" r="3.4" fill="#F2C14E" opacity="0.55"/>
    <circle cx="486.9" cy="81.7" r="2.3" fill="#F2C14E" opacity="0.32"/>
    <circle cx="388.4" cy="99.1" r="2.3" fill="#F2C14E" opacity="0.32"/>
    <circle cx="296.5" cy="138.7" r="3.4" fill="#F2C14E" opacity="0.55"/>
    <circle cx="216.2" cy="198.5" r="2.3" fill="#F2C14E" opacity="0.32"/>
    <circle cx="151.9" cy="275.2" r="2.3" fill="#F2C14E" opacity="0.32"/>
    <circle cx="107.0" cy="364.6" r="3.4" fill="#F2C14E" opacity="0.55"/>
    <circle cx="83.9" cy="462.0" r="2.3" fill="#F2C14E" opacity="0.32"/>
    <circle cx="83.9" cy="562.0" r="2.3" fill="#F2C14E" opacity="0.32"/>
    <circle cx="107.0" cy="659.4" r="3.4" fill="#F2C14E" opacity="0.55"/>
    <circle cx="151.9" cy="748.8" r="2.3" fill="#F2C14E" opacity="0.32"/>
    <circle cx="216.2" cy="825.5" r="2.3" fill="#F2C14E" opacity="0.32"/>
    <circle cx="296.5" cy="885.3" r="3.4" fill="#F2C14E" opacity="0.55"/>
    <circle cx="388.4" cy="924.9" r="2.3" fill="#F2C14E" opacity="0.32"/>
    <circle cx="486.9" cy="942.3" r="2.3" fill="#F2C14E" opacity="0.32"/>
    <circle cx="586.8" cy="936.5" r="3.4" fill="#F2C14E" opacity="0.55"/>
    <circle cx="682.7" cy="907.8" r="2.3" fill="#F2C14E" opacity="0.32"/>
    <circle cx="769.4" cy="857.7" r="2.3" fill="#F2C14E" opacity="0.32"/>
    <circle cx="842.2" cy="789.0" r="3.4" fill="#F2C14E" opacity="0.55"/>
    <circle cx="897.2" cy="705.4" r="2.3" fill="#F2C14E" opacity="0.32"/>
    <circle cx="931.4" cy="611.4" r="2.3" fill="#F2C14E" opacity="0.32"/>

  <!-- rashi chakra: 12 divisions, grahas in transit -->
  <g stroke="#F2C14E" stroke-opacity="0.32" fill="none" stroke-width="3">
    <circle cx="512" cy="512" r="446"/>
    <circle cx="512" cy="512" r="476"/>
  </g>
  <g stroke="#F2C14E" stroke-opacity="0.5" stroke-width="4">
    <line x1="942.8" y1="396.6" x2="971.8" y2="388.8"/>
    <line x1="827.4" y1="196.6" x2="848.6" y2="175.4"/>
    <line x1="627.4" y1="81.2" x2="635.2" y2="52.2"/>
    <line x1="396.6" y1="81.2" x2="388.8" y2="52.2"/>
    <line x1="196.6" y1="196.6" x2="175.4" y2="175.4"/>
    <line x1="81.2" y1="396.6" x2="52.2" y2="388.8"/>
    <line x1="81.2" y1="627.4" x2="52.2" y2="635.2"/>
    <line x1="196.6" y1="827.4" x2="175.4" y2="848.6"/>
    <line x1="396.6" y1="942.8" x2="388.8" y2="971.8"/>
    <line x1="627.4" y1="942.8" x2="635.2" y2="971.8"/>
    <line x1="827.4" y1="827.4" x2="848.6" y2="848.6"/>
    <line x1="942.8" y1="627.4" x2="971.8" y2="635.2"/>
  </g>
  <circle cx="929.8" cy="317.2" r="15" fill="#F2C14E" opacity="0.209"/>
  <circle cx="929.8" cy="317.2" r="10" fill="#F2C14E" opacity="0.95"/>
  <circle cx="607.8" cy="61.1" r="12" fill="#FFE9A8" opacity="0.198"/>
  <circle cx="607.8" cy="61.1" r="7" fill="#FFE9A8" opacity="0.9"/>
  <circle cx="78.8" cy="354.3" r="13" fill="#F2C14E" opacity="0.198"/>
  <circle cx="78.8" cy="354.3" r="8" fill="#F2C14E" opacity="0.9"/>
  <circle cx="94.2" cy="706.8" r="14" fill="#FF6D3B" opacity="0.209"/>
  <circle cx="94.2" cy="706.8" r="9" fill="#FF6D3B" opacity="0.95"/>
  <circle cx="416.2" cy="962.9" r="11" fill="#F2C14E" opacity="0.165"/>
  <circle cx="416.2" cy="962.9" r="6" fill="#F2C14E" opacity="0.75"/>
  <circle cx="776.4" cy="889.6" r="16" fill="#FFE9A8" opacity="0.209"/>
  <circle cx="776.4" cy="889.6" r="11" fill="#FFE9A8" opacity="0.95"/>
  <path d="M 233.2 123.7 Q 191.2 148.7 233.2 173.7 Q 215.2 148.7 233.2 123.7 Z" fill="#F7F1E3" opacity="0.95"/>
  <circle cx="962.9" cy="416.2" r="15" fill="#F2C14E"/>
  <g stroke="#F2C14E" stroke-width="5" stroke-linecap="round" opacity="0.9">
    <line x1="984.9" y1="416.2" x2="993.9" y2="416.2"/>
    <line x1="978.5" y1="400.6" x2="984.8" y2="394.2"/>
    <line x1="962.9" y1="394.2" x2="962.9" y2="385.2"/>
    <line x1="947.4" y1="400.6" x2="941.0" y2="394.2"/>
    <line x1="940.9" y1="416.2" x2="931.9" y2="416.2"/>
    <line x1="947.4" y1="431.7" x2="941.0" y2="438.1"/>
    <line x1="962.9" y1="438.2" x2="962.9" y2="447.2"/>
    <line x1="978.5" y1="431.7" x2="984.8" y2="438.1"/>
  </g>

  <!-- inner echo diamond -->
  <path d="M512 357 L667 512 L512 667 L357 512 Z" fill="none" stroke="#F2C14E" stroke-opacity="0.22" stroke-width="7" stroke-linejoin="round"/>

  <!-- kundli diamond -->
  <path d="M512 182 L842 512 L512 842 L182 512 Z" fill="none" stroke="url(#goldG)" stroke-width="26" stroke-linejoin="round"/>
  <line x1="380" y1="290" x2="430" y2="240" stroke="#FFF6DC" stroke-width="7" stroke-linecap="round" opacity="0.55"/><line x1="606" y1="248" x2="648" y2="290" stroke="#FFF6DC" stroke-width="5" stroke-linecap="round" opacity="0.4"/>

  <!-- converging rays -->
  <g stroke="url(#goldG)" stroke-width="12" stroke-linecap="round" opacity="0.88">
    <line x1="512" y1="200" x2="512" y2="292"/>
    <line x1="824" y1="512" x2="732" y2="512"/>
    <line x1="512" y1="824" x2="512" y2="732"/>
    <line x1="200" y1="512" x2="292" y2="512"/>
  </g>
  
  <g transform="translate(0,26)">
  <!-- EARS (behind head) -->
  <path d="M 476 452
           C 452 430, 402 424, 372 452
           C 344 478, 344 520, 366 548
           C 388 574, 430 574, 456 552
           C 470 540, 478 520, 480 500 Z" fill="url(#goldBody)"/>
  <path d="M 548 452
           C 572 430, 622 424, 652 452
           C 680 478, 680 520, 658 548
           C 636 574, 594 574, 568 552
           C 554 540, 546 520, 544 500 Z" fill="url(#goldBody)"/>
  <path d="M 456 470 C 424 466, 396 486, 392 520" fill="none" stroke="#B9822A" stroke-width="6" stroke-linecap="round" opacity="0.7"/>
  <path d="M 568 470 C 600 466, 628 486, 632 520" fill="none" stroke="#B9822A" stroke-width="6" stroke-linecap="round" opacity="0.7"/>

  <!-- HEAD / FOREHEAD -->
  <path d="M 512 402
           C 548 402, 582 420, 590 456
           C 596 484, 588 508, 566 522
           C 548 532, 476 532, 458 522
           C 436 508, 428 484, 434 456
           C 442 420, 476 402, 512 402 Z" fill="url(#goldBody)"/>

  <!-- CROWN / MUKUT -->
  <path d="M 454 418 C 490 404, 534 404, 570 418 L 562 394 C 534 384, 490 384, 462 394 Z" fill="url(#goldG)"/>
  <path d="M 466 402 C 466 364, 484 342, 512 342 C 540 342, 558 364, 558 402 C 534 388, 490 388, 466 402 Z" fill="url(#goldBody)"/>
  <path d="M 512 316 C 519 328, 522 336, 519 344 C 516 348, 508 348, 505 344 C 502 336, 505 328, 512 316 Z" fill="url(#goldG)"/>
  <circle cx="512" cy="350" r="6" fill="url(#coreG)"/>
  <circle cx="512" cy="404" r="9" fill="#E4552A"/>
  <circle cx="512" cy="404" r="9" fill="none" stroke="#8A3016" stroke-width="2"/>

  <!-- EYES -->
  <path d="M 470 466 C 478 458, 494 458, 500 466 C 494 474, 478 474, 470 466 Z" fill="#2A1A4E"/>
  <path d="M 524 466 C 530 458, 546 458, 554 466 C 546 474, 530 474, 524 466 Z" fill="#2A1A4E"/>

  <!-- TILAK -->
  <path d="M 500 428 C 500 448, 524 448, 524 428" fill="none" stroke="#E4552A" stroke-width="7" stroke-linecap="round"/>
  <line x1="512" y1="424" x2="512" y2="450" stroke="#E4552A" stroke-width="7" stroke-linecap="round"/>

  <!-- TUSKS -->
  <path d="M 484 520 C 474 536, 472 556, 480 574 C 486 558, 494 542, 502 530 Z" fill="url(#coreG)"/>
  <path d="M 540 520 C 550 536, 552 556, 544 574 C 538 558, 530 542, 522 530 Z" fill="url(#coreG)"/>

  <!-- TRUNK (clean curl to the right) -->
  <path d="M 498 512
           C 490 552, 492 586, 514 604
           C 538 623, 576 612, 586 578
           C 592 556, 580 540, 556 544
           C 540 547, 534 561, 540 578
           C 530 566, 528 547, 535 530
           C 542 515, 524 512, 514 510 Z" fill="url(#goldBody)"/>
  <path d="M 505 528 C 500 558, 503 586, 520 600" fill="none" stroke="#B9822A" stroke-width="5" stroke-linecap="round" opacity="0.55"/>
  <path d="M 522 550 C 519 570, 524 588, 540 596" fill="none" stroke="#B9822A" stroke-width="4" stroke-linecap="round" opacity="0.4"/>
  </g>
  </g>
</svg>