<svg xmlns="http://www.w3.org/2000/svg" viewBox="0 0 1024 1024">
  <defs>
    <radialGradient id="bgG" cx="0.5" cy="0.32" r="0.85">
      <stop offset="0" stop-color="#2E1E66"/>
      <stop offset="0.55" stop-color="#1A1240"/>
      <stop offset="1" stop-color="#120C28"/>
    </radialGradient>
    <linearGradient id="goldG" x1="0" y1="0" x2="0" y2="1">
      <stop offset="0" stop-color="#FFE9B8"/>
      <stop offset="0.45" stop-color="#F2C14E"/>
      <stop offset="1" stop-color="#C98A2B"/>
    </linearGradient>
    <linearGradient id="flameG" x1="0" y1="0" x2="0" y2="1">
      <stop offset="0" stop-color="#FFA262"/>
      <stop offset="0.55" stop-color="#FF6D3B"/>
      <stop offset="1" stop-color="#E04E22"/>
    </linearGradient>
    <linearGradient id="coreG" x1="0" y1="0" x2="0" y2="1">
      <stop offset="0" stop-color="#FFF6DC"/>
      <stop offset="1" stop-color="#FFD98A"/>
    </linearGradient>
    <radialGradient id="glowG" cx="0.5" cy="0.5" r="0.5">
      <stop offset="0" stop-color="#F2C14E" stop-opacity="0.22"/>
      <stop offset="1" stop-color="#F2C14E" stop-opacity="0"/>
    </radialGradient>
    <radialGradient id="glowHotG" cx="0.5" cy="0.5" r="0.5">
      <stop offset="0" stop-color="#FFC876" stop-opacity="0.35"/>
      <stop offset="1" stop-color="#FFC876" stop-opacity="0"/>
    </radialGradient>
  </defs>
  <rect width="1024" height="1024" rx="232" fill="url(#bgG)"/>
  <rect x="14" y="14" width="996" height="996" rx="220" fill="none" stroke="#F2C14E" stroke-opacity="0.16" stroke-width="4"/>
  <!-- mandala sunburst: the temple-gate pull -->
  <g stroke="#F2C14E">
    <line x1="712.0" y1="512.0" x2="852.0" y2="512.0" stroke-opacity="0.1"/>
    <line x1="705.2" y1="460.2" x2="801.8" y2="434.4" stroke-opacity="0.06"/>
    <line x1="685.2" y1="412.0" x2="806.4" y2="342.0" stroke-opacity="0.1"/>
    <line x1="653.4" y1="370.6" x2="724.1" y2="299.9" stroke-opacity="0.06"/>
    <line x1="612.0" y1="338.8" x2="682.0" y2="217.6" stroke-opacity="0.1"/>
    <line x1="563.8" y1="318.8" x2="589.6" y2="222.2" stroke-opacity="0.06"/>
    <line x1="512.0" y1="312.0" x2="512.0" y2="172.0" stroke-opacity="0.1"/>
    <line x1="460.2" y1="318.8" x2="434.4" y2="222.2" stroke-opacity="0.06"/>
    <line x1="412.0" y1="338.8" x2="342.0" y2="217.6" stroke-opacity="0.1"/>
    <line x1="370.6" y1="370.6" x2="299.9" y2="299.9" stroke-opacity="0.06"/>
    <line x1="338.8" y1="412.0" x2="217.6" y2="342.0" stroke-opacity="0.1"/>
    <line x1="318.8" y1="460.2" x2="222.2" y2="434.4" stroke-opacity="0.06"/>
    <line x1="312.0" y1="512.0" x2="172.0" y2="512.0" stroke-opacity="0.1"/>
    <line x1="318.8" y1="563.8" x2="222.2" y2="589.6" stroke-opacity="0.06"/>
    <line x1="338.8" y1="612.0" x2="217.6" y2="682.0" stroke-opacity="0.1"/>
    <line x1="370.6" y1="653.4" x2="299.9" y2="724.1" stroke-opacity="0.06"/>
    <line x1="412.0" y1="685.2" x2="342.0" y2="806.4" stroke-opacity="0.1"/>
    <line x1="460.2" y1="705.2" x2="434.4" y2="801.8" stroke-opacity="0.06"/>
    <line x1="512.0" y1="712.0" x2="512.0" y2="852.0" stroke-opacity="0.1"/>
    <line x1="563.8" y1="705.2" x2="589.6" y2="801.8" stroke-opacity="0.06"/>
    <line x1="612.0" y1="685.2" x2="682.0" y2="806.4" stroke-opacity="0.1"/>
    <line x1="653.4" y1="653.4" x2="724.1" y2="724.1" stroke-opacity="0.06"/>
    <line x1="685.2" y1="612.0" x2="806.4" y2="682.0" stroke-opacity="0.1"/>
    <line x1="705.2" y1="563.8" x2="801.8" y2="589.6" stroke-opacity="0.06"/>
  </g>

  <!-- twin glow: warm halo + hot core -->
  <ellipse cx="512" cy="520" rx="230" ry="248" fill="url(#glowG)"/>
  <ellipse cx="512" cy="540" rx="120" ry="130" fill="url(#glowHotG)"/>

  <!-- nakshatra ring: 27 lunar mansions -->
  <circle cx="943.0" cy="512.0" r="3.4" fill="#F2C14E" opacity="0.55"/>
    <circle cx="931.4" cy="412.6" r="2.3" fill="#F2C14E" opacity="0.32"/>
    <circle cx="897.2" cy="318.6" r="2.3" fill="#F2C14E" opacity="0.32"/>
    <circle cx="842.2" cy="235.0" r="3.4" fill="#F2C14E" opacity="0.55"/>
    <circle cx="769.4" cy="166.3" r="2.3" fill="#F2C14E" opacity="0.32"/>
    <circle cx="682.7" cy="116.2" r="2.3" fill="#F2C14E" opacity="0.32"/>
    <circle cx="586.8" cy="87.5" r="3.4" fill="#F2C14E" opacity="0.55"/>
    <circle cx="486.9" cy="81.7" r="2.3" fill="#F2C14E" opacity="0.32"/>
    <circle cx="388.4" cy="99.1" r="2.3" fill="#F2C14E" opacity="0.32"/>
    <circle cx="296.5" cy="138.7" r="3.4" fill="#F2C14E" opacity="0.55"/>
    <circle cx="216.2" cy="198.5" r="2.3" fill="#F2C14E" opacity="0.32"/>
    <circle cx="151.9" cy="275.2" r="2.3" fill="#F2C14E" opacity="0.32"/>
    <circle cx="107.0" cy="364.6" r="3.4" fill="#F2C14E" opacity="0.55"/>
    <circle cx="83.9" cy="462.0" r="2.3" fill="#F2C14E" opacity="0.32"/>
    <circle cx="83.9" cy="562.0" r="2.3" fill="#F2C14E" opacity="0.32"/>
    <circle cx="107.0" cy="659.4" r="3.4" fill="#F2C14E" opacity="0.55"/>
    <circle cx="151.9" cy="748.8" r="2.3" fill="#F2C14E" opacity="0.32"/>
    <circle cx="216.2" cy="825.5" r="2.3" fill="#F2C14E" opacity="0.32"/>
    <circle cx="296.5" cy="885.3" r="3.4" fill="#F2C14E" opacity="0.55"/>
    <circle cx="388.4" cy="924.9" r="2.3" fill="#F2C14E" opacity="0.32"/>
    <circle cx="486.9" cy="942.3" r="2.3" fill="#F2C14E" opacity="0.32"/>
    <circle cx="586.8" cy="936.5" r="3.4" fill="#F2C14E" opacity="0.55"/>
    <circle cx="682.7" cy="907.8" r="2.3" fill="#F2C14E" opacity="0.32"/>
    <circle cx="769.4" cy="857.7" r="2.3" fill="#F2C14E" opacity="0.32"/>
    <circle cx="842.2" cy="789.0" r="3.4" fill="#F2C14E" opacity="0.55"/>
    <circle cx="897.2" cy="705.4" r="2.3" fill="#F2C14E" opacity="0.32"/>
    <circle cx="931.4" cy="611.4" r="2.3" fill="#F2C14E" opacity="0.32"/>

  <!-- rashi chakra: 12 divisions, grahas in transit -->
  <g stroke="#F2C14E" stroke-opacity="0.32" fill="none" stroke-width="3">
    <circle cx="512" cy="512" r="446"/>
    <circle cx="512" cy="512" r="476"/>
  </g>
  <g stroke="#F2C14E" stroke-opacity="0.5" stroke-width="4">
    <line x1="942.8" y1="396.6" x2="971.8" y2="388.8"/>
    <line x1="827.4" y1="196.6" x2="848.6" y2="175.4"/>
    <line x1="627.4" y1="81.2" x2="635.2" y2="52.2"/>
    <line x1="396.6" y1="81.2" x2="388.8" y2="52.2"/>
    <line x1="196.6" y1="196.6" x2="175.4" y2="175.4"/>
    <line x1="81.2" y1="396.6" x2="52.2" y2="388.8"/>
    <line x1="81.2" y1="627.4" x2="52.2" y2="635.2"/>
    <line x1="196.6" y1="827.4" x2="175.4" y2="848.6"/>
    <line x1="396.6" y1="942.8" x2="388.8" y2="971.8"/>
    <line x1="627.4" y1="942.8" x2="635.2" y2="971.8"/>
    <line x1="827.4" y1="827.4" x2="848.6" y2="848.6"/>
    <line x1="942.8" y1="627.4" x2="971.8" y2="635.2"/>
  </g>
  <circle cx="929.8" cy="317.2" r="15" fill="#F2C14E" opacity="0.209"/>
  <circle cx="929.8" cy="317.2" r="10" fill="#F2C14E" opacity="0.95"/>
  <circle cx="607.8" cy="61.1" r="12" fill="#FFE9A8" opacity="0.198"/>
  <circle cx="607.8" cy="61.1" r="7" fill="#FFE9A8" opacity="0.9"/>
  <circle cx="78.8" cy="354.3" r="13" fill="#F2C14E" opacity="0.198"/>
  <circle cx="78.8" cy="354.3" r="8" fill="#F2C14E" opacity="0.9"/>
  <circle cx="94.2" cy="706.8" r="14" fill="#FF6D3B" opacity="0.209"/>
  <circle cx="94.2" cy="706.8" r="9" fill="#FF6D3B" opacity="0.95"/>
  <circle cx="416.2" cy="962.9" r="11" fill="#F2C14E" opacity="0.165"/>
  <circle cx="416.2" cy="962.9" r="6" fill="#F2C14E" opacity="0.75"/>
  <circle cx="776.4" cy="889.6" r="16" fill="#FFE9A8" opacity="0.209"/>
  <circle cx="776.4" cy="889.6" r="11" fill="#FFE9A8" opacity="0.95"/>
  <path d="M 233.2 123.7 Q 191.2 148.7 233.2 173.7 Q 215.2 148.7 233.2 123.7 Z" fill="#F7F1E3" opacity="0.95"/>
  <circle cx="962.9" cy="416.2" r="15" fill="#F2C14E"/>
  <g stroke="#F2C14E" stroke-width="5" stroke-linecap="round" opacity="0.9">
    <line x1="984.9" y1="416.2" x2="993.9" y2="416.2"/>
    <line x1="978.5" y1="400.6" x2="984.8" y2="394.2"/>
    <line x1="962.9" y1="394.2" x2="962.9" y2="385.2"/>
    <line x1="947.4" y1="400.6" x2="941.0" y2="394.2"/>
    <line x1="940.9" y1="416.2" x2="931.9" y2="416.2"/>
    <line x1="947.4" y1="431.7" x2="941.0" y2="438.1"/>
    <line x1="962.9" y1="438.2" x2="962.9" y2="447.2"/>
    <line x1="978.5" y1="431.7" x2="984.8" y2="438.1"/>
  </g>

  <!-- inner echo diamond -->
  <path d="M512 357 L667 512 L512 667 L357 512 Z" fill="none" stroke="#F2C14E" stroke-opacity="0.22" stroke-width="7" stroke-linejoin="round"/>

  <!-- kundli diamond -->
  <path d="M512 182 L842 512 L512 842 L182 512 Z" fill="none" stroke="url(#goldG)" stroke-width="26" stroke-linejoin="round"/>
  <line x1="380" y1="290" x2="430" y2="240" stroke="#FFF6DC" stroke-width="7" stroke-linecap="round" opacity="0.55"/><line x1="606" y1="248" x2="648" y2="290" stroke="#FFF6DC" stroke-width="5" stroke-linecap="round" opacity="0.4"/>

  <!-- converging rays -->
  <g stroke="url(#goldG)" stroke-width="12" stroke-linecap="round" opacity="0.88">
    <line x1="512" y1="200" x2="512" y2="292"/>
    <line x1="824" y1="512" x2="732" y2="512"/>
    <line x1="512" y1="824" x2="512" y2="732"/>
    <line x1="200" y1="512" x2="292" y2="512"/>
  </g>

  <!-- flicker: soft secondary flame silhouette, offset, for a living feel -->
  <path d="M512 358
           C 524 402, 556 448, 576 486
           C 596 524, 602 548, 600 572
           C 597 618, 566 644, 528 640
           C 566 632, 590 604, 588 572
           C 586 548, 578 524, 558 486
           C 538 448, 512 402, 512 358 Z" fill="url(#flameG)" opacity="0.35"/>

  <!-- the jyoti -->
  <path d="M512 372
           C 520 412, 546 452, 564 488
           C 582 523, 588 544, 588 566
           C 588 620, 555 650, 512 650
           C 469 650, 436 620, 436 566
           C 436 544, 442 523, 460 488
           C 478 452, 504 412, 512 372 Z" fill="url(#flameG)"/>
  <path d="M512 486
           C 518 510, 532 532, 542 552
           C 550 568, 553 579, 553 590
           C 553 620, 535 636, 512 636
           C 489 636, 471 620, 471 590
           C 471 579, 474 568, 482 552
           C 492 532, 506 510, 512 486 Z" fill="url(#coreG)"/>
  <circle cx="512" cy="646" r="8" fill="#7A2E12" opacity="0.9"/>
  <circle cx="472" cy="672" r="4" fill="#FF8A4D" opacity="0.7"/><circle cx="548" cy="680" r="3" fill="#F2C14E" opacity="0.6"/><circle cx="512" cy="694" r="2.6" fill="#FFB877" opacity="0.55"/>
</svg>
